<svg xmlns="http://www.w3.org/2000/svg" viewBox="0 0 64 64">
  <!-- hojas -->
  <path d="M32 10c-4-3-9-3-12 0 3 1 4 3 4 6 2-2 5-2 8 0 3-2 6-2 8 0 0-3 1-5 4-6-3-3-8-3-12 0z" fill="#3FB969"/>
  <!-- cuerpo fresa -->
  <path d="M32 20c10 0 17 6 17 15 0 11-9 20-17 20S15 46 15 35c0-9 7-15 17-15z" fill="#E6175C"/>
  <!-- semillas -->
  <g fill="#FFE08A"><circle cx="26" cy="33" r="1.6"/><circle cx="38" cy="33" r="1.6"/><circle cx="32" cy="40" r="1.6"/><circle cx="22" cy="42" r="1.6"/><circle cx="42" cy="42" r="1.6"/><circle cx="28" cy="48" r="1.6"/><circle cx="36" cy="48" r="1.6"/></g>
</svg>
