<svg xmlns="http://www.w3.org/2000/svg" viewBox="0 0 64 64">
  <g fill="none" stroke="#211b14" stroke-width="2.4" stroke-linecap="round" stroke-linejoin="round">
    <!-- corona -->
    <path d="M26 15l2-6 4 4 4-4 2 6z"/>
    <!-- astas -->
    <path d="M27 21c-3-2-4-6-9-7m9 7c-2-3-7-3-9-7m9 7c-1-3-4-4-5-8"/>
    <path d="M37 21c3-2 4-6 9-7m-9 7c2-3 7-3 9-7m-9 7c1-3 4-4 5-8"/>
    <!-- cráneo -->
    <path d="M27 21c-3 1-5 4-5 9 0 4 2 6 4 8l6 9 6-9c2-2 4-4 4-8 0-5-2-8-5-9-2-1-8-1-10 0z"/>
    <!-- ojos -->
    <path d="M27 30c2-1 4 0 4 2 0 2-3 3-4 1-1-1-1-2 0-3z"/>
    <path d="M37 30c-2-1-4 0-4 2 0 2 3 3 4 1 1-1 1-2 0-3z"/>
    <!-- nariz -->
    <path d="M32 36l-1.5 4h3z"/>
    <!-- laurel -->
    <path d="M24 50q8 5 16 0"/>
  </g>
</svg>
